<svg width="1080" height="1080" viewBox="0 0 1080 1080" fill="none" xmlns="http://www.w3.org/2000/svg">
<rect width="1080" height="1080" rx="100" fill="white"/>
<g clip-path="url(#clip0_207_1116)">
<path d="M917.359 720.647H986.572C986.294 719.742 986.154 718.837 985.737 718.001C981.907 708.88 916.036 556.458 771.691 465.311V543.228C849.956 604.364 897.584 683.186 917.359 720.647Z" fill="black"/>
<path d="M683.469 317C650.604 317 623.796 351.189 619.966 383.219C647.47 391.366 662.441 400.139 686.603 423.535C642.875 407.659 594.063 397.981 539.612 397.981C516.634 397.981 494.7 399.861 473.602 403.064V466.706C494.561 462.877 516.495 460.648 539.612 460.648C567.395 460.648 593.576 463.712 618.225 469.213V548.035C618.225 579.926 608.756 607.848 593.576 620.869C578.675 633.472 559.248 639.669 534.32 639.669C509.392 639.669 490.453 633.681 476.109 621.287C460.581 607.778 450.972 579.717 450.972 548.035V382.244C450.972 346.872 421.1 317 385.728 317C350.356 317 320.484 346.872 320.484 382.244V427.156C336.36 421.934 364.63 423.605 378.138 427.992C372.707 428.688 351.539 440.525 339.702 446.931C172.936 534.109 97.5956 708.256 93.4874 718.004C93.2785 718.491 93.2089 719.048 93 719.536H162.492C183.729 679.568 235.325 595.175 320.484 533.621V546.921C320.484 610.912 342.557 668.636 380.923 705.192C420.892 743.28 472.488 762.637 534.32 762.637C596.152 762.637 648.306 743.349 688.274 705.192C726.71 668.566 748.713 610.912 748.713 546.851V382.244C748.713 346.872 718.842 317 683.469 317Z" fill="black"/>
<path d="M286.296 719.467L287.549 534.527C287.549 524.918 279.89 517.05 270.281 516.98H270.142C260.602 516.98 252.803 524.709 252.734 534.249L251.48 719.397H286.296V719.467Z" fill="black"/>
<path d="M829.417 719.464L830.601 554.091C830.601 544.482 822.941 536.614 813.332 536.544H813.193C803.654 536.544 795.855 544.273 795.785 553.812L794.602 719.464H829.417Z" fill="black"/>
<path d="M554.934 568.09V437.045C554.934 427.93 547.545 420.542 538.431 420.542H534.671C525.557 420.542 518.169 427.93 518.169 437.045V568.09C518.169 577.204 525.557 584.592 534.671 584.592H538.431C547.545 584.592 554.934 577.204 554.934 568.09Z" fill="black"/>
</g>
<defs>
<clipPath id="clip0_207_1116">
<rect width="893.572" height="445.637" fill="white" transform="translate(93 317)"/>
</clipPath>
</defs>
</svg>
